<?xml version="1.0" encoding="UTF-8"?>
<svg xmlns="http://www.w3.org/2000/svg" viewBox="0 0 64 64" width="512" height="512"><g id="girl-woman-user-people-avatar"><path d="M49.04,44.43,48,44.16V22a4,4,0,0,1-4,4h-.04a11.4,11.4,0,0,1-.33,1.94A11.966,11.966,0,0,1,36,36.31V41l.84.22,3.16.83V47H37v4l-5-3-5,3V47H24V42.05l3.16-.83L28,41V36.31a11.966,11.966,0,0,1-7.63-8.37A11.4,11.4,0,0,1,20.04,26H20a4,4,0,0,1-4-4V44.16l-1.04.27A8,8,0,0,0,9,52.17V61H55V52.17A8,8,0,0,0,49.04,44.43Z" style="fill:#bddbff"/><path d="M20,18l4.17-4.17A6.011,6.011,0,0,1,29,12.1a6.135,6.135,0,0,1,1.7.42L44,18a3.995,3.995,0,0,1,4,4V19a16,16,0,0,0-32,0v3a3.995,3.995,0,0,1,4-4Z" style="fill:#bddbff"/><path d="M26,23a1,1,0,0,1,1,1h2a3,3,0,0,0-6,0h2A1,1,0,0,1,26,23Z" style="fill:#57a4ff"/><path d="M38,23a1,1,0,0,1,1,1h2a3,3,0,0,0-6,0h2A1,1,0,0,1,38,23Z" style="fill:#57a4ff"/><path d="M49.29,43.46,49,43.39V19a17,17,0,0,0-34,0V43.38l-.3.08A9.03,9.03,0,0,0,8,52.17V61a1,1,0,0,0,1,1H55a1,1,0,0,0,1-1V52.17A9.028,9.028,0,0,0,49.29,43.46ZM37,40.23V37a13.017,13.017,0,0,0,7.84-10.09A4.736,4.736,0,0,0,47,25.97V42.86Zm2,2.59V46H37a1,1,0,0,0-1,1v2.23L33.44,47.7l3.81-5.34ZM32,36A11.007,11.007,0,0,1,21,25V18.41l3.88-3.87a4.976,4.976,0,0,1,5.44-1.09L43,18.67V25A11.007,11.007,0,0,1,32,36ZM45,24.81V19.18a3.179,3.179,0,0,1,1.12.69A3.03,3.03,0,0,1,47,22,2.994,2.994,0,0,1,45,24.81ZM32,4A14.958,14.958,0,0,1,46.95,17.98a5,5,0,0,0-2.69-.95L31.08,11.6A6.137,6.137,0,0,0,30,11.26V8H28v3.08a6.864,6.864,0,0,0-2,.42V8H24v4.66c-.18.15-.37.29-.54.46l-3.92,3.92a5.034,5.034,0,0,0-2.49.94A15.012,15.012,0,0,1,32,4ZM17.87,19.88a3.1,3.1,0,0,1,1.13-.7v5.64a3,3,0,0,1-1.13-4.94ZM17,25.97a4.958,4.958,0,0,0,2.16.94A13.017,13.017,0,0,0,27,37v3.23L17,42.86ZM27,46H25V42.82l1.75-.46,3.81,5.34L28,49.23V47A1,1,0,0,0,27,46Zm4,14H22a4,4,0,0,1-2.4-7.2l-1.2-1.6a5.985,5.985,0,0,0-.86,8.8H10V52.17a7.019,7.019,0,0,1,5.21-6.77L23,43.35V47a1,1,0,0,0,1,1h2v3a.992.992,0,0,0,.51.87A.947.947,0,0,0,27,52a1,1,0,0,0,.51-.14L31,49.77ZM28.72,41.68A1,1,0,0,0,29,41V37.64a12.68,12.68,0,0,0,6,0V41a1,1,0,0,0,.28.68L32,46.28ZM54,60H46.46a5.985,5.985,0,0,0-.86-8.8l-1.2,1.6A4,4,0,0,1,42,60H33V49.77l3.49,2.09A1,1,0,0,0,38,51V48h2a1,1,0,0,0,1-1V43.35l7.78,2.05A7.017,7.017,0,0,1,54,52.17Z" style="fill:#57a4ff"/><path d="M32,33a3,3,0,0,0,3-3H33a1,1,0,0,1-2,0H29A3,3,0,0,0,32,33Z" style="fill:#57a4ff"/></g></svg>
