<svg height="512" viewBox="0 0 64 64" width="512" xmlns="http://www.w3.org/2000/svg"><g id="avatar-man-boy-user-people-2" data-name="avatar-man-boy-user-people"><path d="m55 52.17v8.83h-21l8-5-5-4 7-2-2.87-7.65 7.91 2.08a8 8 0 0 1 5.96 7.74z" fill="#bddbff"/><path d="m48 13v9a4 4 0 0 0 -4-4l-6-5-18 5a4 4 0 0 0 -4 4v-11a8 8 0 0 1 8-8h8a5.947 5.947 0 0 1 4.46 2h3.54a8 8 0 0 1 8 8z" fill="#bddbff"/><path d="m30 61h-21v-8.83a8 8 0 0 1 5.96-7.74l7.91-2.08-2.87 7.65 7 2-5 4z" fill="#bddbff"/><g fill="#57a4ff"><path d="m29 23a3 3 0 0 0 -6 0h2a1 1 0 0 1 2 0z"/><path d="m38 22a1 1 0 0 1 1 1h2a3 3 0 0 0 -6 0h2a1 1 0 0 1 1-1z"/><path d="m49.29 43.46-12.29-3.23v-3.24a13.05 13.05 0 0 0 7.86-10.06 5.093 5.093 0 0 0 2.68-1.4 5.005 5.005 0 0 0 1.46-3.53v-9a9.014 9.014 0 0 0 -9-9h-3.11a6.952 6.952 0 0 0 -4.89-2h-8a9.014 9.014 0 0 0 -9 9v11a4.982 4.982 0 0 0 4.16 4.92 13.037 13.037 0 0 0 7.84 10.08v3.23l-12.3 3.23a9.03 9.03 0 0 0 -6.7 8.71v8.83a1 1 0 0 0 1 1h46a1 1 0 0 0 1-1v-8.83a9.028 9.028 0 0 0 -6.71-8.71zm-6.61 5.88-4.34 1.24 2.2-6.97zm3.45-25.22a3.131 3.131 0 0 1 -1.13.71v-5.66a3.008 3.008 0 0 1 1.13 4.95zm-6.13-18.12a7.008 7.008 0 0 1 7 7v5.01a5.008 5.008 0 0 0 -2.62-1l-5.38-4.48v-3.53a7.02 7.02 0 0 0 -.68-3zm-21 18.82a3.179 3.179 0 0 1 -1.12-.69 3 3 0 0 1 1.12-4.95zm-2-6.79v-7.03a7.008 7.008 0 0 1 7-7h8a5 5 0 0 1 5 5v3.24l-17.21 4.78a4.931 4.931 0 0 0 -2.79 1.01zm4 6.97v-6.24l16.76-4.66 5.24 4.37v6.53a11 11 0 0 1 -22 0zm2.46 18.61 2.2 6.97-4.34-1.24zm-13.46 16.39v-7.83a7.019 7.019 0 0 1 5.21-6.77l6.05-1.59-2.2 5.84a1.014 1.014 0 0 0 .05.8.991.991 0 0 0 .62.51l5.13 1.47-3.48 2.79a.976.976 0 0 0 -.38.84 1.021 1.021 0 0 0 .47.79l5.04 3.15zm13.73-4.1 2.88-2.31 1.62 5.12zm7.27 4.1h-.27l-5.44-17.25 2.41-.64 3.3 3.3zm-2-19.41v-2.95a12.68 12.68 0 0 0 6 0v2.95l-3 3zm4 19.41v-14.59l3.3-3.3 2.41.64-5.44 17.25zm4.39-6.41 2.88 2.31-4.5 2.81zm16.61 6.41h-16.51l5.04-3.15a1.021 1.021 0 0 0 .47-.79.976.976 0 0 0 -.38-.84l-3.48-2.79 5.13-1.47a.991.991 0 0 0 .62-.51 1.014 1.014 0 0 0 .05-.8l-2.2-5.84 6.04 1.59a7.017 7.017 0 0 1 5.22 6.77z"/><path d="m37 29h-2c0 .249-1.064 1-3 1s-3-.751-3-1h-2c0 1.71 2.149 3 5 3s5-1.29 5-3z"/></g></g></svg>